<svg width="56" height="56" viewBox="0 0 56 56" fill="none" xmlns="http://www.w3.org/2000/svg">
<rect width="56" height="56" rx="28" fill="#26B7FF"/>
<path fill-rule="evenodd" clip-rule="evenodd" d="M24.667 25.417C24.3278 25.417 23.9919 25.4838 23.6786 25.6136C23.3652 25.7434 23.0804 25.9337 22.8406 26.1735C22.6007 26.4134 22.4105 26.6981 22.2807 27.0115C22.1508 27.3249 22.084 27.6608 22.084 28C22.084 28.3392 22.1508 28.6751 22.2807 28.9885C22.4105 29.3019 22.6007 29.5866 22.8406 29.8265C23.0804 30.0663 23.3652 30.2566 23.6786 30.3864C23.9919 30.5162 24.3278 30.583 24.667 30.583H27.25V25.417H24.667ZM27.25 23.917H24.667C23.9818 23.917 23.3247 23.6448 22.8402 23.1603C22.3557 22.6758 22.0835 22.0187 22.0835 21.3335C22.0835 20.6483 22.3557 19.9912 22.8402 19.5067C23.3247 19.0222 23.9818 18.75 24.667 18.75H27.25V23.917ZM28.75 18.75V23.917H31.333C32.0094 23.9037 32.6536 23.6257 33.1272 23.1426C33.6009 22.6596 33.8662 22.01 33.8662 21.3335C33.8662 20.657 33.6009 20.0074 33.1272 19.5244C32.6536 19.0413 32.0094 18.7633 31.333 18.75H28.75ZM31.333 25.416C30.655 25.4159 30.0042 25.6824 29.5209 26.158C29.0377 26.6336 28.7608 27.2801 28.75 27.958V28.041C28.7583 28.55 28.9168 29.0452 29.2056 29.4644C29.4944 29.8836 29.9007 30.2081 30.3733 30.3972C30.846 30.5863 31.3639 30.6315 31.8622 30.5271C32.3605 30.4228 32.8168 30.1735 33.1738 29.8107C33.5309 29.4478 33.7727 28.9875 33.869 28.4877C33.9654 27.9878 33.9118 27.4706 33.7151 27.0011C33.5185 26.5315 33.1874 26.1306 32.7636 25.8486C32.3398 25.5666 31.8421 25.4161 31.333 25.416ZM24.667 32.083C24.1559 32.0828 23.6562 32.2342 23.2312 32.518C22.8061 32.8018 22.4747 33.2053 22.279 33.6775C22.0833 34.1496 22.032 34.6692 22.1316 35.1705C22.2312 35.6718 22.4772 36.1323 22.8385 36.4938C23.1999 36.8553 23.6603 37.1015 24.1616 37.2013C24.6628 37.3011 25.1824 37.2499 25.6547 37.0544C26.1269 36.8589 26.5305 36.5277 26.8145 36.1027C27.0985 35.6777 27.25 35.1781 27.25 34.667V32.083H24.667Z" fill="white"/>
</svg>
