<svg width="56" height="56" viewBox="0 0 56 56" fill="none" xmlns="http://www.w3.org/2000/svg">
<rect width="56" height="56" rx="28" fill="#26B7FF"/>
<path d="M28 18.2423C26.6868 18.2423 25.3864 18.501 24.1732 19.0035C22.9599 19.5061 21.8575 20.2427 20.9289 21.1712C19.0536 23.0466 18 25.5901 18 28.2423C18 32.6623 20.87 36.4123 24.84 37.7423C25.34 37.8223 25.5 37.5123 25.5 37.2423V35.5523C22.73 36.1523 22.14 34.2123 22.14 34.2123C21.68 33.0523 21.03 32.7423 21.03 32.7423C20.12 32.1223 21.1 32.1423 21.1 32.1423C22.1 32.2123 22.63 33.1723 22.63 33.1723C23.5 34.6923 24.97 34.2423 25.54 34.0023C25.63 33.3523 25.89 32.9123 26.17 32.6623C23.95 32.4123 21.62 31.5523 21.62 27.7423C21.62 26.6323 22 25.7423 22.65 25.0323C22.55 24.7823 22.2 23.7423 22.75 22.3923C22.75 22.3923 23.59 22.1223 25.5 23.4123C26.29 23.1923 27.15 23.0823 28 23.0823C28.85 23.0823 29.71 23.1923 30.5 23.4123C32.41 22.1223 33.25 22.3923 33.25 22.3923C33.8 23.7423 33.45 24.7823 33.35 25.0323C34 25.7423 34.38 26.6323 34.38 27.7423C34.38 31.5623 32.04 32.4023 29.81 32.6523C30.17 32.9623 30.5 33.5723 30.5 34.5023V37.2423C30.5 37.5123 30.66 37.8323 31.17 37.7423C35.14 36.4023 38 32.6623 38 28.2423C38 26.9291 37.7413 25.6287 37.2388 24.4155C36.7362 23.2022 35.9997 22.0998 35.0711 21.1712C34.1425 20.2427 33.0401 19.5061 31.8268 19.0035C30.6136 18.501 29.3132 18.2423 28 18.2423Z" fill="white"/>
</svg>
