<svg width="56" height="56" viewBox="0 0 56 56" fill="none" xmlns="http://www.w3.org/2000/svg">
<rect width="56" height="56" rx="28" fill="#26B7FF"/>
<path d="M35 19C35.5304 19 36.0391 19.2107 36.4142 19.5858C36.7893 19.9609 37 20.4696 37 21V35C37 35.5304 36.7893 36.0391 36.4142 36.4142C36.0391 36.7893 35.5304 37 35 37H21C20.4696 37 19.9609 36.7893 19.5858 36.4142C19.2107 36.0391 19 35.5304 19 35V21C19 20.4696 19.2107 19.9609 19.5858 19.5858C19.9609 19.2107 20.4696 19 21 19H35ZM34.5 34.5V29.2C34.5 28.3354 34.1565 27.5062 33.5452 26.8948C32.9338 26.2835 32.1046 25.94 31.24 25.94C30.39 25.94 29.4 26.46 28.92 27.24V26.13H26.13V34.5H28.92V29.57C28.92 28.8 29.54 28.17 30.31 28.17C30.6813 28.17 31.0374 28.3175 31.2999 28.5801C31.5625 28.8426 31.71 29.1987 31.71 29.57V34.5H34.5ZM22.88 24.56C23.3256 24.56 23.7529 24.383 24.0679 24.0679C24.383 23.7529 24.56 23.3256 24.56 22.88C24.56 21.95 23.81 21.19 22.88 21.19C22.4318 21.19 22.0019 21.3681 21.685 21.685C21.3681 22.0019 21.19 22.4318 21.19 22.88C21.19 23.81 21.95 24.56 22.88 24.56ZM24.27 34.5V26.13H21.5V34.5H24.27Z" fill="white"/>
</svg>
